<svg xmlns="http://www.w3.org/2000/svg" viewBox="0 0 64 64" fill="none" role="img" aria-label="Lipi">
  <defs>
    <linearGradient id="lipi-body" x1="12" y1="8" x2="52" y2="56" gradientUnits="userSpaceOnUse">
      <stop stop-color="#5EEAD4"/>
      <stop offset="1" stop-color="#2ED3A6"/>
    </linearGradient>
    <linearGradient id="lipi-shine" x1="20" y1="14" x2="36" y2="30" gradientUnits="userSpaceOnUse">
      <stop stop-color="#fff" stop-opacity="0.55"/>
      <stop offset="1" stop-color="#fff" stop-opacity="0"/>
    </linearGradient>
  </defs>
  <path d="M32 6c-12 0-20 9.5-20 22 0 8.5 4 15 10 19.5L18 58c-.5 2.5 2 4 4 2.5L28 52c1.2.4 2.5.6 4 .6s2.8-.2 4-.6l6 8.5c2 1.5 4.5 0 4-2.5l-4-10.5c6-4.5 10-11 10-19.5C52 15.5 44 6 32 6z" fill="url(#lipi-body)"/>
  <ellipse cx="24" cy="26" rx="10" ry="12" fill="url(#lipi-shine)"/>
  <ellipse cx="24" cy="30" rx="5" ry="6" fill="#172033"/>
  <ellipse cx="40" cy="30" rx="5" ry="6" fill="#172033"/>
  <circle cx="26" cy="28" r="1.8" fill="#fff"/>
  <circle cx="42" cy="28" r="1.8" fill="#fff"/>
  <path d="M26 40c2.5 3 9.5 3 12 0" stroke="#172033" stroke-width="2.2" stroke-linecap="round"/>
  <circle cx="48" cy="14" r="3" fill="#FFD166"/>
  <circle cx="48" cy="14" r="1.2" fill="#fff" fill-opacity="0.8"/>
</svg>
